<svg width="38" height="38" viewBox="0 0 38 38" fill="none" xmlns="http://www.w3.org/2000/svg">
<ellipse cx="19" cy="19" rx="19" ry="19" transform="matrix(0 -1 -1 0 38 38)" fill="white"/>
<path d="M18.3491 17.7166C18.4343 17.6307 18.5357 17.5625 18.6474 17.5159C18.7591 17.4694 18.8789 17.4454 19 17.4454C19.121 17.4454 19.2408 17.4694 19.3525 17.5159C19.4642 17.5625 19.5656 17.6307 19.6508 17.7166L23.8491 21.9241C23.9343 22.01 24.0357 22.0782 24.1474 22.1247C24.2591 22.1713 24.379 22.1952 24.5 22.1952C24.621 22.1952 24.7408 22.1713 24.8525 22.1247C24.9642 22.0782 25.0656 22.01 25.1508 21.9241C25.3215 21.7523 25.4174 21.52 25.4174 21.2778C25.4174 21.0357 25.3215 20.8033 25.1508 20.6316L20.9433 16.4241C20.4277 15.9091 19.7287 15.6198 19 15.6198C18.2712 15.6198 17.5722 15.9091 17.0566 16.4241L12.8491 20.6316C12.6798 20.8023 12.5843 21.0328 12.5833 21.2732C12.5826 21.3939 12.6057 21.5135 12.6513 21.6252C12.6969 21.7368 12.7642 21.8384 12.8491 21.9241C12.9343 22.01 13.0357 22.0782 13.1474 22.1247C13.2591 22.1713 13.3789 22.1952 13.4999 22.1952C13.621 22.1952 13.7408 22.1713 13.8525 22.1247C13.9642 22.0782 14.0656 22.01 14.1508 21.9241L18.3491 17.7166Z" fill="#4F2EE8"/>
</svg>
