<svg aria-hidden="true" style="position: absolute; width: 0; height: 0; overflow: hidden;" version="1.1" xmlns="http://www.w3.org/2000/svg" xmlns:xlink="http://www.w3.org/1999/xlink">
<defs>
<symbol id="icon-amazon-1" viewBox="0 0 106 32">
<path fill="#f90" style="fill: var(--color1, #f90)" d="M65.939 25.026c-6.154 4.55-15.105 6.974-22.825 6.974-10.816 0-20.513-3.991-27.897-10.629-0.559-0.522-0.075-1.231 0.634-0.821 7.944 4.625 17.753 7.385 27.897 7.385 6.825 0 14.359-1.417 21.296-4.364 1.044-0.41 1.902 0.709 0.895 1.455z"></path>
<path fill="#f90" style="fill: var(--color1, #f90)" d="M68.513 22.079c-0.783-1.007-5.221-0.485-7.198-0.224-0.597 0.075-0.709-0.448-0.149-0.821 3.543-2.499 9.324-1.753 9.995-0.932s-0.186 6.638-3.506 9.399c-0.522 0.41-1.007 0.186-0.783-0.373 0.746-1.865 2.425-6.005 1.641-7.049z"></path>
<path fill="#fff" style="fill: var(--color2, #000)" d="M61.427 3.506l0 0.001c0.014 0.331 0.287 0.595 0.621 0.595 0.005 0 0.009-0 0.013-0h5.632l-6.49 9.287c-0.41 0.597-0.41 1.268-0.41 1.641v2.461c0 0.373 0.41 0.746 0.783 0.559 3.655-1.977 8.093-1.79 11.413-0.037 0.41 0.224 0.783-0.186 0.783-0.559v-2.573c-0.037-0.336-0.149-0.709-0.559-0.932-1.865-1.044-4.065-1.342-6.154-1.305l5.594-7.981c0.522-0.746 0.821-1.194 0.821-1.529v-2.051l-0-0.001c-0.014-0.331-0.286-0.596-0.621-0.596-0.005 0-0.009 0-0.013 0l-10.814 0c-0.010-0.001-0.021-0.001-0.032-0.001-0.313 0-0.567 0.254-0.567 0.567 0 0.011 0 0.021 0.001 0.030v2.425zM22.005 18.536h-3.282c-0.304-0.032-0.546-0.261-0.596-0.555l-0.001-0.004v-16.858c0.014-0.333 0.286-0.597 0.621-0.597 0.005 0 0.009 0 0.014 0h3.058c0.315 0.005 0.571 0.248 0.597 0.557l0 0.002v2.2h0.075c0.783-2.126 2.312-3.133 4.326-3.133 2.051 0 3.357 1.007 4.252 3.133 0.783-2.126 2.611-3.133 4.55-3.133 1.38 0 2.872 0.559 3.804 1.865 1.044 1.417 0.821 3.469 0.821 5.296v10.667c-0.014 0.332-0.286 0.597-0.621 0.597-0.005 0-0.009-0-0.014-0h-3.244c-0.336-0.037-0.597-0.298-0.597-0.597v-8.951c0-0.709 0.075-2.499-0.075-3.17-0.261-1.119-0.97-1.455-1.939-1.455-0.894 0.026-1.652 0.583-1.971 1.365l-0.005 0.015c-0.336 0.858-0.298 2.275-0.298 3.245v8.951c-0.014 0.332-0.286 0.597-0.621 0.597-0.005 0-0.009-0-0.014-0h-3.281c-0.336-0.037-0.597-0.298-0.597-0.597v-8.951c0-1.865 0.298-4.662-2.014-4.662-2.35 0-2.275 2.685-2.275 4.662v8.951c-0.048 0.319-0.32 0.56-0.648 0.56-0.008 0-0.016-0-0.024-0l0.001 0zM82.797 0.149c4.886 0 7.534 4.177 7.534 9.511 0 5.147-2.909 9.249-7.534 9.249-4.774 0-7.385-4.177-7.385-9.399-0.037-5.259 2.611-9.362 7.385-9.362zM82.797 3.618c-2.424 0-2.573 3.319-2.573 5.371s-0.037 6.452 2.536 6.452c2.536 0 2.685-3.543 2.685-5.706 0-1.417-0.075-3.133-0.485-4.476-0.373-1.194-1.119-1.641-2.163-1.641zM96.634 18.536h-3.282c-0.336-0.037-0.597-0.298-0.597-0.597v-16.895c0.043-0.316 0.31-0.557 0.634-0.559h3.059c0.289 0.011 0.528 0.211 0.596 0.48l0.001 0.004v2.573h0.075c0.932-2.312 2.201-3.394 4.476-3.394 1.455 0 2.909 0.522 3.841 1.977 0.858 1.343 0.858 3.618 0.858 5.259v10.629c-0.046 0.297-0.3 0.523-0.607 0.523-0.010 0-0.019-0-0.029-0.001l0.001 0h-3.282c-0.298-0.037-0.559-0.261-0.597-0.522v-9.175c0-1.865 0.224-4.55-2.051-4.55-0.783 0-1.529 0.522-1.902 1.343-0.448 1.044-0.522 2.051-0.522 3.207v9.101c-0.044 0.336-0.327 0.594-0.671 0.597h-0zM52.811 10.48c0 1.268 0.037 2.35-0.597 3.506-0.522 0.932-1.343 1.492-2.275 1.492-1.268 0-2.014-0.97-2.014-2.387 0-2.797 2.499-3.319 4.886-3.319zM56.131 18.499c-0.118 0.103-0.273 0.166-0.443 0.166-0.125 0-0.242-0.034-0.343-0.093l0.003 0.002c-1.082-0.895-1.305-1.343-1.902-2.2-1.79 1.827-3.096 2.387-5.408 2.387-2.76 0-4.923-1.716-4.923-5.11 0-2.685 1.455-4.475 3.506-5.371 1.79-0.783 4.289-0.932 6.191-1.156v-0.41c0-0.783 0.075-1.716-0.41-2.387-0.41-0.597-1.156-0.858-1.827-0.858-1.268 0-2.387 0.634-2.648 1.977-0.075 0.298-0.261 0.597-0.559 0.597l-3.17-0.336c-0.261-0.075-0.559-0.261-0.485-0.671 0.746-3.879 4.214-5.035 7.347-5.035 1.604 0 3.692 0.41 4.96 1.641 1.604 1.492 1.455 3.506 1.455 5.669v5.11c0 1.529 0.634 2.2 1.231 3.058 0.224 0.298 0.261 0.671 0 0.858-0.709 0.559-1.902 1.604-2.573 2.163zM9.734 10.48c0 1.268 0.037 2.35-0.597 3.506-0.522 0.932-1.343 1.492-2.275 1.492-1.268 0-2.014-0.97-2.014-2.387 0-2.797 2.499-3.319 4.886-3.319zM13.016 18.499c-0.118 0.103-0.273 0.166-0.443 0.166-0.125 0-0.242-0.034-0.343-0.093l0.003 0.002c-1.082-0.895-1.305-1.343-1.902-2.2-1.79 1.827-3.096 2.387-5.408 2.387-2.76 0-4.923-1.716-4.923-5.11 0-2.685 1.455-4.475 3.506-5.371 1.79-0.783 4.289-0.932 6.191-1.156v-0.41c0-0.783 0.075-1.716-0.41-2.387-0.41-0.597-1.156-0.858-1.827-0.858-1.268 0-2.387 0.634-2.648 1.977-0.075 0.298-0.261 0.597-0.559 0.597l-3.17-0.336c-0.261-0.075-0.559-0.261-0.485-0.671 0.746-3.879 4.214-5.035 7.347-5.035 1.604 0 3.692 0.41 4.96 1.641 1.604 1.492 1.455 3.506 1.455 5.669v5.11c0 1.529 0.634 2.2 1.231 3.058 0.224 0.298 0.261 0.671 0 0.858-0.709 0.559-1.902 1.604-2.573 2.163z"></path>
</symbol>
<symbol id="icon-apple-ibooks" viewBox="0 0 32 32">
<path fill="#f90" style="fill: var(--color2, #f90)" d="M20.352 1.6c2.88 0 4.352 0 5.888 0.48 1.696 0.608 3.040 1.952 3.648 3.648 0.512 1.568 0.512 3.008 0.512 5.92v8.704c0 2.88 0 4.352-0.48 5.888-0.608 1.696-1.952 3.040-3.648 3.648-1.568 0.512-3.008 0.512-5.92 0.512h-8.704c-2.88 0-4.352 0-5.888-0.48-1.696-0.64-3.040-1.984-3.68-3.68-0.48-1.536-0.48-2.976-0.48-5.888v-8.704c0-2.88 0-4.352 0.48-5.888 0.64-1.696 1.984-3.040 3.68-3.68 1.536-0.48 2.976-0.48 5.888-0.48h8.704z"></path>
<path fill="#111" style="fill: var(--color3, #fff)" d="M6.4 10.496s0.928-2.4 4.672-2.4c3.712 0 4.704 3.136 4.704 3.136v13.44s-1.184-3.584-4.672-3.584c-2.528 0-4.32 1.632-4.32 1.632-0.192 0.16-0.384 0.064-0.384-0.192v-12.032zM25.6 10.496v12c0 0.256-0.16 0.352-0.384 0.192 0 0-1.792-1.632-4.32-1.632-3.456 0-4.64 3.584-4.64 3.584v-13.44s0.96-3.136 4.704-3.136c3.712 0 4.64 2.432 4.64 2.432z"></path>
</symbol>
<symbol id="icon-bin" viewBox="0 0 32 32">
<path fill="none" stroke="#fff" style="stroke: var(--color3, #fff)" stroke-linejoin="round" stroke-linecap="round" stroke-miterlimit="4" stroke-width="2.9091" d="M12 4h8M4 8h24M25.333 8l-0.935 14.026c-0.14 2.104-0.21 3.157-0.665 3.954-0.4 0.702-1.004 1.267-1.731 1.619-0.826 0.4-1.881 0.4-3.99 0.4h-4.025c-2.109 0-3.163 0-3.99-0.4-0.727-0.353-1.331-0.917-1.731-1.619-0.455-0.798-0.525-1.85-0.665-3.954l-0.935-14.026M13.333 14v6.667M18.667 14v6.667"></path>
</symbol>
<symbol id="icon-close" viewBox="0 0 32 32">
<path d="M32 3.223l-3.223-3.223-12.777 12.777-12.777-12.777-3.223 3.223 12.777 12.777-12.777 12.777 3.223 3.223 12.777-12.777 12.777 12.777 3.223-3.223-12.777-12.777 12.777-12.777z"></path>
</symbol>
</defs>
</svg>